<?xml version="1.0" encoding="UTF-8" standalone="no"?>
<svg
   xmlns:dc="http://purl.org/dc/elements/1.1/"
   xmlns:cc="http://creativecommons.org/ns#"
   xmlns:rdf="http://www.w3.org/1999/02/22-rdf-syntax-ns#"
   xmlns:svg="http://www.w3.org/2000/svg"
   xmlns="http://www.w3.org/2000/svg"
   xmlns:sodipodi="http://sodipodi.sourceforge.net/DTD/sodipodi-0.dtd"
   xmlns:inkscape="http://www.inkscape.org/namespaces/inkscape"
   version="1.0"
   width="800"
   height="800"
   id="parabola"
   sodipodi:version="0.32"
   inkscape:version="0.47pre4 "
   sodipodi:docname="Límite 01.svg"
   inkscape:output_extension="org.inkscape.output.svg.inkscape">
  <metadata
     id="metadata12">
    <rdf:RDF>
      <cc:Work
         rdf:about="">
        <dc:format>image/svg+xml</dc:format>
        <dc:type
           rdf:resource="http://purl.org/dc/dcmitype/StillImage" />
      </cc:Work>
    </rdf:RDF>
  </metadata>
  <defs
     id="defs10">
    <inkscape:perspective
       sodipodi:type="inkscape:persp3d"
       inkscape:vp_x="0 : 400 : 1"
       inkscape:vp_y="0 : 1000 : 0"
       inkscape:vp_z="800 : 400 : 1"
       inkscape:persp3d-origin="400 : 266.66667 : 1"
       id="perspective2908" />
  </defs>
  <sodipodi:namedview
     inkscape:window-height="864"
     inkscape:window-width="1334"
     inkscape:pageshadow="2"
     inkscape:pageopacity="0.0"
     guidetolerance="10.0"
     gridtolerance="10000"
     objecttolerance="10000"
     borderopacity="1.0"
     bordercolor="#666666"
     pagecolor="#ffffff"
     id="base"
     showgrid="true"
     height="800px"
     width="800px"
     inkscape:zoom="0.77125"
     inkscape:cx="400"
     inkscape:cy="400"
     inkscape:window-x="-4"
     inkscape:window-y="-4"
     inkscape:current-layer="parabola"
     showguides="true"
     inkscape:guide-bbox="true"
     inkscape:object-paths="true"
     inkscape:grid-points="true"
     inkscape:window-maximized="0">
    <inkscape:grid
       id="GridFromPre046Settings"
       type="xygrid"
       originx="0px"
       originy="0px"
       spacingx="10px"
       spacingy="10px"
       color="#0000ff"
       empcolor="#0000ff"
       opacity="0.2"
       empopacity="0.4"
       empspacing="5" />
  </sodipodi:namedview>
  <desc
     id="desc3">Parabola</desc>
  <g
     inkscape:groupmode="layer"
     id="layer1"
     inkscape:label="Papel" />
  <g
     id="g7490"
     transform="translate(779.86914,750.5)"
     style="stroke:#0000ff;stroke-opacity:1">
    <path
       inkscape:connector-type="polyline"
       id="path1878"
       d="M -729.86914,-50.5 L -29.999613,-50"
       style="fill:#000000;fill-opacity:1;fill-rule:evenodd;stroke:#0000ff;stroke-width:1.99999928;stroke-linecap:square;stroke-linejoin:miter;stroke-miterlimit:4;stroke-dasharray:none;stroke-opacity:1"
       sodipodi:nodetypes="cc" />
    <path
       sodipodi:nodetypes="ccccc"
       id="path10914"
       d="M -59.89538,-49.89953 L -69.42082,-59.49998 L -40.60459,-49.99611 L -69.4992,-40.4709 L -59.89538,-49.89953 z"
       style="fill:#000000;fill-opacity:1;fill-rule:evenodd;stroke:#0000ff;stroke-width:1;stroke-linecap:butt;stroke-linejoin:miter;stroke-miterlimit:50;stroke-dasharray:none;stroke-opacity:1" />
    <text
       xml:space="preserve"
       id="text5716"
       style="font-size:28px;font-style:normal;font-variant:normal;font-weight:normal;font-stretch:normal;text-align:start;line-height:125%;writing-mode:lr-tb;text-anchor:start;fill:#000000;fill-opacity:1;stroke:#0000ff;stroke-width:1px;stroke-linecap:butt;stroke-linejoin:miter;stroke-opacity:1;font-family:'Times New Roman'"
       y="-20.5"
       x="-59.869141"
       sodipodi:linespacing="125%"><tspan
         sodipodi:role="line"
         id="tspan5718"
         x="-59.869141"
         y="-20.5">x</tspan></text>
  </g>
  <g
     id="g5704"
     transform="translate(150,49.99946)"
     style="fill:#000000;fill-opacity:1;stroke:#0000ff;stroke-opacity:1">
    <path
       inkscape:connector-type="polyline"
       id="path2766"
       d="M -49.9,0.99942161 L -50,700.00054"
       style="fill:#000000;fill-opacity:1;fill-rule:evenodd;stroke:#0000ff;stroke-width:1.99999905;stroke-linecap:square;stroke-linejoin:miter;stroke-miterlimit:4;stroke-dasharray:none;stroke-opacity:1"
       sodipodi:nodetypes="cc" />
    <path
       sodipodi:nodetypes="ccccc"
       id="path10027"
       d="M -49.88993,29.619706 L -59.47085,39.159782 L -49.99628,10.260592 L -40.44177,39.23816 L -49.88993,29.619706 z"
       style="fill:#000000;fill-opacity:1;fill-rule:evenodd;stroke:#0000ff;stroke-width:1;stroke-linecap:butt;stroke-linejoin:miter;stroke-miterlimit:50;stroke-dasharray:none;stroke-opacity:1" />
    <text
       sodipodi:linespacing="125%"
       x="-79.664063"
       y="23.457031"
       style="font-size:28px;font-style:normal;font-variant:normal;font-weight:normal;font-stretch:normal;text-align:start;line-height:125%;writing-mode:lr-tb;text-anchor:start;fill:#000000;fill-opacity:1;stroke:#0000ff;stroke-width:1px;stroke-linecap:butt;stroke-linejoin:miter;stroke-opacity:1;font-family:'Times New Roman'"
       id="text2786"
       xml:space="preserve"><tspan
         y="23.457031"
         x="-79.664063"
         id="tspan3432"
         sodipodi:role="line">y</tspan></text>
  </g>
  <path
     style="fill:none;fill-rule:evenodd;stroke:#ff0000;stroke-width:4;stroke-linecap:butt;stroke-linejoin:miter;stroke-miterlimit:4;stroke-dasharray:none;stroke-opacity:1"
     d="M 50,600 C 270,550 510,170 750,120"
     id="path3328"
     sodipodi:nodetypes="cz" />
  <path
     style="fill:none;fill-rule:evenodd;stroke:#000000;stroke-width:0.99999994px;stroke-linecap:butt;stroke-linejoin:miter;stroke-opacity:1"
     d="M 70.530717,350.00002 L 430.33818,350.00002"
     id="path3711" />
  <path
     style="fill:none;fill-rule:evenodd;stroke:#000000;stroke-width:1px;stroke-linecap:butt;stroke-linejoin:miter;stroke-opacity:1"
     d="M 91.414521,231.00002 L 570.32364,231.00002"
     id="path3713" />
  <path
     style="fill:none;fill-rule:evenodd;stroke:#000000;stroke-width:1px;stroke-linecap:butt;stroke-linejoin:miter;stroke-opacity:1"
     d="M 91.309151,470.00002 L 310.42903,470.00002"
     id="path3715" />
  <path
     style="fill:none;fill-rule:evenodd;stroke:#000000;stroke-width:1px;stroke-linecap:butt;stroke-linejoin:miter;stroke-opacity:1"
     d="M 271.36908,440.95012 L 271.36908,710.71748"
     id="path3717" />
  <path
     style="fill:none;fill-rule:evenodd;stroke:#000000;stroke-width:0.99999988px;stroke-linecap:butt;stroke-linejoin:miter;stroke-opacity:1"
     d="M 400.93455,331.01244 L 400.93455,739.46262"
     id="path3719" />
  <path
     style="fill:none;fill-rule:evenodd;stroke:#000000;stroke-width:0.99999994px;stroke-linecap:butt;stroke-linejoin:miter;stroke-opacity:1"
     d="M 540.36906,201.04262 L 540.36906,709.95746"
     id="path3721" />
  <text
     xml:space="preserve"
     id="text3723"
     style="font-size:28px;font-style:normal;font-variant:normal;font-weight:normal;font-stretch:normal;text-align:start;line-height:125%;writing-mode:lr-tb;text-anchor:start;fill:#640064;fill-opacity:1;stroke:#640064;stroke-width:1px;stroke-linecap:butt;stroke-linejoin:miter;stroke-opacity:1;font-family:Times New Roman;-inkscape-font-specification:Times New Roman"
     y="730"
     x="380"
     sodipodi:linespacing="125%"><tspan
       sodipodi:role="line"
       id="tspan2910"
       x="380"
       y="730">c</tspan></text>
  <text
     xml:space="preserve"
     id="text3727"
     style="font-size:28px;font-style:normal;font-variant:normal;font-weight:normal;font-stretch:normal;text-align:start;line-height:125%;writing-mode:lr-tb;text-anchor:start;fill:#000082;fill-opacity:1;stroke:#000082;stroke-width:1px;stroke-linecap:butt;stroke-linejoin:miter;stroke-opacity:1;font-family:Times New Roman"
     y="340"
     x="70"
     sodipodi:linespacing="125%"><tspan
       sodipodi:role="line"
       id="tspan3749"
       x="70"
       y="340">L</tspan></text>
  <path
     style="fill:#640064;fill-rule:evenodd;stroke:#640064;stroke-width:1px;stroke-linecap:butt;stroke-linejoin:miter;stroke-opacity:1;fill-opacity:1"
     d="M 510,620 L 520,630 L 510,640 L 540,630 L 510,620 z"
     id="path3739"
     sodipodi:nodetypes="ccccc" />
  <path
     style="fill:#640064;fill-rule:evenodd;stroke:#640064;stroke-width:1px;stroke-linecap:butt;stroke-linejoin:miter;stroke-opacity:1;fill-opacity:1"
     d="M 370,620 L 380,630 L 370,640 L 400,630 L 370,620 z"
     id="path3741"
     sodipodi:nodetypes="ccccc" />
  <path
     style="fill:#640064;fill-rule:evenodd;stroke:#640064;stroke-width:1px;stroke-linecap:butt;stroke-linejoin:miter;stroke-opacity:1;fill-opacity:1"
     d="M 300,620 L 290,630 L 300,640 L 270,630 L 300,620 z"
     id="path3743"
     sodipodi:nodetypes="ccccc" />
  <path
     style="fill:#640064;fill-rule:evenodd;stroke:#640064;stroke-width:1px;stroke-linecap:butt;stroke-linejoin:miter;stroke-opacity:1;fill-opacity:1"
     d="M 430,620 L 420,630 L 430,640 L 400,630 L 430,620 z"
     id="path3745"
     sodipodi:nodetypes="ccccc" />
  <path
     style="fill:#000082;fill-rule:evenodd;stroke:#000082;stroke-width:1px;stroke-linecap:butt;stroke-linejoin:miter;stroke-opacity:1;fill-opacity:1"
     d="M 180,260 L 170,250 L 160,260 L 170,230 L 180,260 z"
     id="path3751"
     sodipodi:nodetypes="ccccc" />
  <path
     style="fill:#000082;fill-rule:evenodd;stroke:#000082;stroke-width:1px;stroke-linecap:butt;stroke-linejoin:miter;stroke-opacity:1;fill-opacity:1"
     d="M 180,380 L 170,370 L 160,380 L 170,350 L 180,380 z"
     id="path3753"
     sodipodi:nodetypes="ccccc" />
  <path
     style="fill:#000082;fill-rule:evenodd;stroke:#000082;stroke-width:1px;stroke-linecap:butt;stroke-linejoin:miter;stroke-opacity:1;fill-opacity:1"
     d="M 180,440 L 170,450 L 160,440 L 170,470 L 180,440 z"
     id="path3755"
     sodipodi:nodetypes="ccccc" />
  <path
     style="fill:#000082;fill-rule:evenodd;stroke:#000082;stroke-width:1px;stroke-linecap:butt;stroke-linejoin:miter;stroke-opacity:1;fill-opacity:1"
     d="M 180,320 L 170,330 L 160,320 L 170,350 L 180,320 z"
     id="path3757"
     sodipodi:nodetypes="ccccc" />
  <g
     transform="matrix(1.8543046e-2,0,0,-2.0597322e-2,178.68344,299.42327)"
     id="g3886"
     style="fill:#000082;fill-opacity:1;stroke:#000082;stroke-opacity:1">
    <path
       d="M 316,485 C 184.66667,531.66667 119,602.33333 119,697 C 119,771.66667 153.66667,831.33333 223,876 C 292.33333,920.66667 379,943 483,943 C 577,943 651.66667,927.66667 707,897 C 762.33333,866.33333 790,829 790,785 C 790,762.33333 781.33333,742.66667 764,726 C 746.66667,709.33333 726.66667,700.66667 704,700 C 666.66667,700 636,726 612,778 C 578.66667,850 528.66667,886 462,886 C 409.33333,886 366,868.66667 332,834 C 298,799.33333 281,751 281,689 C 281,567 344,506 470,506 C 483.33333,506 498.66667,507.33333 516,510 C 546,514 569.33333,516 586,516 C 626.66667,516 647,504.33333 647,481 C 647,455 626.33333,442 585,442 C 570.33333,442 548.33333,444.33333 519,449 C 497,453 480,455 468,455 C 334.66667,455 268,387 268,251 C 268,185 285.66667,132 321,92 C 356.33333,52 405.66667,31.666667 469,31 C 548.33333,31 601,72 627,154 C 640.33333,197.33333 655,227.33333 671,244 C 687,260.66667 709,269 737,269 C 759.66667,269 780,261 798,245 C 816,229 825.33333,208 826,182 C 826,121.33333 792,71.333333 724,32 C 656,-7.3333333 573.66667,-27.333333 477,-28 C 371,-28 277,-2.6666667 195,48 C 113,98.666667 71.666667,166.33333 71,251 C 71,357 152.66667,435 316,485 z"
       id="path3888"
       style="fill:#000082;fill-opacity:1;stroke:#000082;stroke-opacity:1" />
  </g>
  <g
     transform="matrix(1.6969259e-2,0,0,-2.0718232e-2,328.81215,619.41989)"
     id="g3890"
     style="fill:#640064;fill-opacity:1;stroke:#640064;stroke-opacity:1">
    <path
       d="M 494,853 C 460.66667,890.33333 414.33333,935 355,987 C 289.66667,1044.3333 245.66667,1089.3333 223,1122 C 200.33333,1154.6667 189,1191 189,1231 C 189,1289.6667 216.33333,1335.6667 271,1369 C 325.66667,1402.3333 397,1419.3333 485,1420 C 573,1420 649.66667,1405 715,1375 C 780.33333,1345 813.33333,1303.6667 814,1251 C 814,1225.6667 806,1204.6667 790,1188 C 774,1171.3333 755.33333,1163 734,1163 C 703.33333,1163 667.33333,1186 626,1232 C 584,1278.6667 548.66667,1311.3333 520,1330 C 491.33333,1348.6667 457.33333,1358.3333 418,1359 C 368.66667,1359 328.33333,1348 297,1326 C 265.66667,1304 249.66667,1276 249,1242 C 249,1210 262,1180 288,1152 C 314,1124 381,1073 489,999 C 604.33333,919.66667 685.66667,857.66667 733,813 C 780.33333,768.33333 819.33333,714 850,650 C 880.66667,586 895.66667,518.33333 895,447 C 895,321.66667 851,211.33333 763,116 C 675,20.666667 571.66667,-27.333333 453,-28 C 345.66667,-28 255,10.333333 181,87 C 107,163.66667 70,266 70,394 C 70,517.33333 110.66667,620.33333 192,703 C 273.33333,785.66667 374,835.66667 494,853 z M 538,807 C 346.66667,775.66667 251,644.33333 251,413 C 251,293.66667 274.66667,201 322,135 C 369.33333,69 425,36 489,36 C 555,36 609.33333,67.666667 652,131 C 694.66667,194.33333 716,280.66667 716,390 C 716,547.33333 656.66667,686.33333 538,807 z"
       id="path3892"
       style="fill:#640064;fill-opacity:1;stroke:#640064;stroke-opacity:1" />
  </g>
  <g
     transform="matrix(1.8543046e-2,0,0,-2.0597322e-2,178.74594,419.36077)"
     id="g3898"
     style="fill:#000082;fill-opacity:1;stroke:#000082;stroke-opacity:1">
    <path
       d="M 316,485 C 184.66667,531.66667 119,602.33333 119,697 C 119,771.66667 153.66667,831.33333 223,876 C 292.33333,920.66667 379,943 483,943 C 577,943 651.66667,927.66667 707,897 C 762.33333,866.33333 790,829 790,785 C 790,762.33333 781.33333,742.66667 764,726 C 746.66667,709.33333 726.66667,700.66667 704,700 C 666.66667,700 636,726 612,778 C 578.66667,850 528.66667,886 462,886 C 409.33333,886 366,868.66667 332,834 C 298,799.33333 281,751 281,689 C 281,567 344,506 470,506 C 483.33333,506 498.66667,507.33333 516,510 C 546,514 569.33333,516 586,516 C 626.66667,516 647,504.33333 647,481 C 647,455 626.33333,442 585,442 C 570.33333,442 548.33333,444.33333 519,449 C 497,453 480,455 468,455 C 334.66667,455 268,387 268,251 C 268,185 285.66667,132 321,92 C 356.33333,52 405.66667,31.666667 469,31 C 548.33333,31 601,72 627,154 C 640.33333,197.33333 655,227.33333 671,244 C 687,260.66667 709,269 737,269 C 759.66667,269 780,261 798,245 C 816,229 825.33333,208 826,182 C 826,121.33333 792,71.333333 724,32 C 656,-7.3333333 573.66667,-27.333333 477,-28 C 371,-28 277,-2.6666667 195,48 C 113,98.666667 71.666667,166.33333 71,251 C 71,357 152.66667,435 316,485 z"
       id="path3900"
       style="fill:#000082;fill-opacity:1;stroke:#000082;stroke-opacity:1" />
  </g>
  <g
     transform="matrix(1.6969259e-2,0,0,-2.0718232e-2,458.81215,619.41989)"
     id="g3902"
     style="fill:#640064;fill-opacity:1;stroke:#640064;stroke-opacity:1">
    <path
       d="M 494,853 C 460.66667,890.33333 414.33333,935 355,987 C 289.66667,1044.3333 245.66667,1089.3333 223,1122 C 200.33333,1154.6667 189,1191 189,1231 C 189,1289.6667 216.33333,1335.6667 271,1369 C 325.66667,1402.3333 397,1419.3333 485,1420 C 573,1420 649.66667,1405 715,1375 C 780.33333,1345 813.33333,1303.6667 814,1251 C 814,1225.6667 806,1204.6667 790,1188 C 774,1171.3333 755.33333,1163 734,1163 C 703.33333,1163 667.33333,1186 626,1232 C 584,1278.6667 548.66667,1311.3333 520,1330 C 491.33333,1348.6667 457.33333,1358.3333 418,1359 C 368.66667,1359 328.33333,1348 297,1326 C 265.66667,1304 249.66667,1276 249,1242 C 249,1210 262,1180 288,1152 C 314,1124 381,1073 489,999 C 604.33333,919.66667 685.66667,857.66667 733,813 C 780.33333,768.33333 819.33333,714 850,650 C 880.66667,586 895.66667,518.33333 895,447 C 895,321.66667 851,211.33333 763,116 C 675,20.666667 571.66667,-27.333333 453,-28 C 345.66667,-28 255,10.333333 181,87 C 107,163.66667 70,266 70,394 C 70,517.33333 110.66667,620.33333 192,703 C 273.33333,785.66667 374,835.66667 494,853 z M 538,807 C 346.66667,775.66667 251,644.33333 251,413 C 251,293.66667 274.66667,201 322,135 C 369.33333,69 425,36 489,36 C 555,36 609.33333,67.666667 652,131 C 694.66667,194.33333 716,280.66667 716,390 C 716,547.33333 656.66667,686.33333 538,807 z"
       id="path3904"
       style="fill:#640064;fill-opacity:1;stroke:#640064;stroke-opacity:1" />
  </g>
  <path
     style="fill:#000082;fill-rule:evenodd;stroke:#000082;stroke-width:2;stroke-linecap:butt;stroke-linejoin:miter;stroke-opacity:1;stroke-miterlimit:4;stroke-dasharray:none;fill-opacity:1"
     d="M 170,240 L 170,460"
     id="path3906"
     sodipodi:nodetypes="cc" />
  <path
     style="fill:#640064;fill-rule:evenodd;stroke:#640064;stroke-width:2;stroke-linecap:butt;stroke-linejoin:miter;stroke-opacity:1;stroke-miterlimit:4;stroke-dasharray:none;fill-opacity:1"
     d="M 280,630 L 530,630"
     id="path3908"
     sodipodi:nodetypes="cc" />
</svg>
